<?xml version="1.0"?>
<svg xmlns="http://www.w3.org/2000/svg" height="512px" viewBox="0 0 64 64" width="512px" class=""><g><path d="m53 1h-42a1 1 0 0 0 -1 1v60a1 1 0 0 0 1 1h30a1 1 0 0 0 .707-.293l12-12a1 1 0 0 0 .293-.707v-48a1 1 0 0 0 -1-1zm-41 2h40v46h-11a1 1 0 0 0 -1 1v11h-28zm38.586 48-8.586 8.586v-8.586z" data-original="#000000" class="active-path" data-old_color="#000000" fill="#1D90E2"/><path d="m15 14h34a1 1 0 0 0 1-1v-6a1 1 0 0 0 -1-1h-34a1 1 0 0 0 -1 1v6a1 1 0 0 0 1 1zm1-6h32v4h-32z" data-original="#000000" class="active-path" data-old_color="#000000" fill="#1D90E2"/><path d="m15 18h34a1 1 0 0 0 0-2h-34a1 1 0 0 0 0 2z" data-original="#000000" class="active-path" data-old_color="#000000" fill="#1D90E2"/><path d="m15 22h34a1 1 0 0 0 0-2h-34a1 1 0 0 0 0 2z" data-original="#000000" class="active-path" data-old_color="#000000" fill="#1D90E2"/><path d="m37 24h-22a1 1 0 0 0 0 2h22a1 1 0 0 0 0-2z" data-original="#000000" class="active-path" data-old_color="#000000" fill="#1D90E2"/><path d="m40 26h1a1 1 0 0 0 0-2h-1a1 1 0 0 0 0 2z" data-original="#000000" class="active-path" data-old_color="#000000" fill="#1D90E2"/><path d="m33 32h-18a1 1 0 0 0 -1 1v6a1 1 0 0 0 1 1h18a1 1 0 0 0 1-1v-6a1 1 0 0 0 -1-1zm-1 6h-16v-4h16z" data-original="#000000" class="active-path" data-old_color="#000000" fill="#1D90E2"/><path d="m26 42h-11a1 1 0 0 0 0 2h11a1 1 0 0 0 0-2z" data-original="#000000" class="active-path" data-old_color="#000000" fill="#1D90E2"/><path d="m20 46h-5a1 1 0 0 0 0 2h5a1 1 0 0 0 0-2z" data-original="#000000" class="active-path" data-old_color="#000000" fill="#1D90E2"/></g> </svg>
